HIERARCHY
ROOT hip
{
  OFFSET 0 0 0
  CHANNELS 6 Xposition Yposition Zposition Zrotation Yrotation Xrotation
  JOINT abdomen
  {
    OFFSET 0 20.6881 -0.73152
    CHANNELS 3 Zrotation Xrotation Yrotation
    JOINT chest
    {
      OFFSET 0 11.7043 -0.48768
      CHANNELS 3 Zrotation Xrotation Yrotation
      JOINT neck
      {
        OFFSET 0 22.1894 -2.19456
        CHANNELS 3 Zrotation Xrotation Yrotation
        JOINT head
        {
          OFFSET -0.24384 7.07133 1.2192
          CHANNELS 3 Zrotation Xrotation Yrotation
          JOINT leftEye
          {
            OFFSET 4.14528 8.04674 8.04672
            CHANNELS 3 Zrotation Xrotation Yrotation
            End Site
            {
              OFFSET 1 0 0
            }
          }
          JOINT rightEye
          {
            OFFSET -3.6576 8.04674 8.04672
            CHANNELS 3 Zrotation Xrotation Yrotation
            End Site
            {
              OFFSET 1 0 0
            }
          }
        }
      }
      JOINT rCollar
      {
        OFFSET -2.68224 19.2634 -4.8768
        CHANNELS 3 Zrotation Xrotation Yrotation
        JOINT rShldr
        {
          OFFSET -8.77824 -1.95073 1.46304
          CHANNELS 3 Zrotation Xrotation Yrotation
          JOINT rForeArm
          {
            OFFSET -28.1742 -1.7115 0.48768
            CHANNELS 3 Zrotation Xrotation Yrotation
            JOINT rHand
            {
              OFFSET -22.5879 0.773209 7.07136
              CHANNELS 3 Zrotation Xrotation Yrotation
              JOINT rThumb1
              {
                OFFSET -1.2192 -0.487915 3.41376
                CHANNELS 3 Zrotation Xrotation Yrotation
                JOINT rThumb2
                {
                  OFFSET -3.37035 -0.52449 3.41376
                  CHANNELS 3 Zrotation Xrotation Yrotation
                  End Site
                  {
                    OFFSET -1.78271 -1.18214 1.43049
                  }
                }
              }
              JOINT rIndex1
              {
                OFFSET -7.75947 0.938293 5.60832
                CHANNELS 3 Zrotation Xrotation Yrotation
                JOINT rIndex2
                {
                  OFFSET -2.54057 -0.884171 1.56538
                  CHANNELS 3 Zrotation Xrotation Yrotation
                  End Site
                  {
                    OFFSET -1.62519 -0.234802 1.16502
                  }
                }
              }
              JOINT rMid1
              {
                OFFSET -8.24714 1.18213 3.41376
                CHANNELS 3 Zrotation Xrotation Yrotation
                JOINT rMid2
                {
                  OFFSET -3.10165 -0.590103 1.0647
                  CHANNELS 3 Zrotation Xrotation Yrotation
                  End Site
                  {
                    OFFSET -2.48547 -0.328903 0.83742
                  }
                }
              }
              JOINT rRing1
              {
                OFFSET -8.82822 0.546677 1.51678
                CHANNELS 3 Zrotation Xrotation Yrotation
                JOINT rRing2
                {
                  OFFSET -2.60934 -0.819778 -0.0198488
                  CHANNELS 3 Zrotation Xrotation Yrotation
                  End Site
                  {
                    OFFSET -2.33842 -0.294052 0.168128
                  }
                }
              }
              JOINT rPinky1
              {
                OFFSET -8.27202 -0.0477905 -0.4584
                CHANNELS 3 Zrotation Xrotation Yrotation
                JOINT rPinky2
                {
                  OFFSET -1.82734 -0.647385 -0.700984
                  CHANNELS 3 Zrotation Xrotation Yrotation
                  End Site
                  {
                    OFFSET -1.69225 -0.51767 -0.607171
                  }
                }
              }
            }
          }
        }
      }
      JOINT lCollar
      {
        OFFSET 2.68224 19.2634 -4.8768
        CHANNELS 3 Zrotation Xrotation Yrotation
        JOINT lShldr
        {
          OFFSET 8.77824 -1.95073 1.46304
          CHANNELS 3 Zrotation Xrotation Yrotation
          JOINT lForeArm
          {
            OFFSET 28.1742 -1.7115 0.48768
            CHANNELS 3 Zrotation Xrotation Yrotation
            JOINT lHand
            {
              OFFSET 22.5879 0.773209 7.07136
              CHANNELS 3 Zrotation Xrotation Yrotation
              JOINT lThumb1
              {
                OFFSET 1.2192 -0.487915 3.41376
                CHANNELS 3 Zrotation Xrotation Yrotation
                JOINT lThumb2
                {
                  OFFSET 3.37035 -0.52449 3.41376
                  CHANNELS 3 Zrotation Xrotation Yrotation
                  End Site
                  {
                    OFFSET 1.78271 -1.18214 1.43049
                  }
                }
              }
              JOINT lIndex1
              {
                OFFSET 7.75947 0.938293 5.60832
                CHANNELS 3 Zrotation Xrotation Yrotation
                JOINT lIndex2
                {
                  OFFSET 2.54057 -0.884171 1.56538
                  CHANNELS 3 Zrotation Xrotation Yrotation
                  End Site
                  {
                    OFFSET 1.62519 -0.234802 1.16502
                  }
                }
              }
              JOINT lMid1
              {
                OFFSET 8.24714 1.18213 3.41376
                CHANNELS 3 Zrotation Xrotation Yrotation
                JOINT lMid2
                {
                  OFFSET 3.10165 -0.590103 1.0647
                  CHANNELS 3 Zrotation Xrotation Yrotation
                  End Site
                  {
                    OFFSET 2.48547 -0.328903 0.83742
                  }
                }
              }
              JOINT lRing1
              {
                OFFSET 8.82822 0.546677 1.51678
                CHANNELS 3 Zrotation Xrotation Yrotation
                JOINT lRing2
                {
                  OFFSET 2.60934 -0.819778 -0.0198488
                  CHANNELS 3 Zrotation Xrotation Yrotation
                  End Site
                  {
                    OFFSET 2.33842 -0.294052 0.168128
                  }
                }
              }
              JOINT lPinky1
              {
                OFFSET 8.27202 -0.0477905 -0.4584
                CHANNELS 3 Zrotation Xrotation Yrotation
                JOINT lPinky2
                {
                  OFFSET 1.82734 -0.647385 -0.700984
                  CHANNELS 3 Zrotation Xrotation Yrotation
                  End Site
                  {
                    OFFSET 1.69225 -0.51767 -0.607171
                  }
                }
              }
            }
          }
        }
      }
    }
  }
  JOINT rButtock
  {
    OFFSET -8.77824 4.35084 1.2192
    CHANNELS 3 Zrotation Xrotation Yrotation
    JOINT rThigh
    {
      OFFSET 0 -1.70687 -2.19456
      CHANNELS 3 Zrotation Xrotation Yrotation
      JOINT rShin
      {
        OFFSET 0 -36.8199 0.73152
        CHANNELS 3 Zrotation Xrotation Yrotation
        JOINT rFoot
        {
          OFFSET 0.73152 -45.1104 -5.12064
          CHANNELS 3 Zrotation Xrotation Yrotation
          End Site
          {
            OFFSET -1.1221 -3.69964 12.103
          }
        }
      }
    }
  }
  JOINT lButtock
  {
    OFFSET 8.77824 4.35084 1.2192
    CHANNELS 3 Zrotation Xrotation Yrotation
    JOINT lThigh
    {
      OFFSET 0 -1.70687 -2.19456
      CHANNELS 3 Zrotation Xrotation Yrotation
      JOINT lShin
      {
        OFFSET 0 -36.8199 0.73152
        CHANNELS 3 Zrotation Xrotation Yrotation
        JOINT lFoot
        {
          OFFSET -0.73152 -45.1104 -5.12064
          CHANNELS 3 Zrotation Xrotation Yrotation
          End Site
          {
            OFFSET 1.1221 -3.69964 12.103
          }
        }
      }
    }
  }
}
MOTION
Frames:	6
Frame Time:	0.00833333
-7.69608 84.8147 34.0447 -5.3804 -10.6779 0.8553 0.248177 12.3397 -5.37905 -0.939811 -2.55491 -1.68042 4.56413 15.2671 1.98435 3.93031 -14.426 4.16422 -0.0 0.0 0.0 -0.0 0.0 0.0 -2.61569e-14 -7.07672e-14 -3.47404e-13 24.3169 19.3072 26.9317 -12.9347 -57.3272 129.458 -3.95618 -47.79 -8.91402 2.29131e-10 4.15468e-10 7.183e-10 3.68297e-10 7.13628e-10 1.25347e-09 2.29133e-10 4.15467e-10 7.18284e-10 7.73091 5.47488 0.417314 2.2913e-10 4.15467e-10 7.18298e-10 2.90554 0.965183 0.102902 2.29141e-10 4.15467e-10 7.18297e-10 10.2786 0.731801 0.0259123 2.29127e-10 4.15468e-10 7.18299e-10 2.22167 -0.733487 -0.20892 -2.61252e-14 -7.07669e-14 -3.47628e-13 -90.6606 49.6542 21.4071 28.2081 -32.0459 -70.5283 0.570868 -20.9578 3.08572 8.38189e-10 5.85969e-09 2.58775e-09 1.4073e-09 1.01028e-08 4.48596e-09 8.38189e-10 5.8597e-09 2.58776e-09 -7.73091 5.47488 -0.417314 8.38189e-10 5.85969e-09 2.58775e-09 -2.90554 0.965183 -0.102902 8.38185e-10 5.8597e-09 2.58776e-09 -10.2786 0.731801 -0.0259123 8.38194e-10 5.85969e-09 2.58774e-09 -2.22167 -0.733487 0.20892 -2.03217e-16 0.0 -3.88251e-19 -22.1814 -2.00436 0.00104184 0.00592823 -2.08073 0.0577921 -0.321803 4.05209 0.113201 2.03217e-16 0.0 3.88251e-19 7.76337 2.16461 -2.86616 -0.0526831 5.64318 -0.230816 2.43261 -13.0275 27.0123
-7.70211 84.803 34.0514 -5.3529 -10.7843 0.909 0.178961 12.2813 -5.22577 -0.927253 -2.48201 -1.63822 4.43692 15.2039 1.85037 3.91693 -14.6043 3.91132 -0.0 0.0 0.0 -0.0 0.0 0.0 -6.46299e-14 -8.65972e-14 -5.22996e-13 23.8429 19.7165 27.0136 -12.3032 -57.574 130.694 -4.07026 -48.2756 -9.0679 -5.97512e-11 8.4675e-11 3.80964e-10 -1.15273e-10 1.77563e-10 6.59927e-10 -5.97486e-11 8.4674e-11 3.80953e-10 7.73091 5.47488 0.417314 -5.97517e-11 8.4673e-11 3.80964e-10 2.90554 0.965183 0.102902 -5.97423e-11 8.46727e-11 3.80964e-10 10.2786 0.731801 0.0259123 -5.9755e-11 8.46744e-11 3.80966e-10 2.22167 -0.733487 -0.20892 -6.46465e-14 -8.65937e-14 -5.23237e-13 -90.5528 49.8172 21.2744 28.2035 -32.0081 -70.4671 0.570883 -20.9581 3.08577 9.17942e-10 6.04682e-09 2.67162e-09 1.54587e-09 1.04287e-08 4.63155e-09 9.1794e-10 6.04682e-09 2.67162e-09 -7.73091 5.47488 -0.417314 9.17942e-10 6.04682e-09 2.67161e-09 -2.90554 0.965183 -0.102902 9.17938e-10 6.04682e-09 2.67162e-09 -10.2786 0.731801 -0.0259123 9.17947e-10 6.04682e-09 2.67161e-09 -2.22167 -0.733487 0.20892 -2.03217e-16 0.0 -3.88251e-19 -22.1787 -2.0047 0.000992594 0.00594906 -2.08073 0.0579761 -0.321555 4.05242 0.11317 2.03217e-16 0.0 3.88251e-19 7.70019 2.22428 -2.82491 -0.0512525 5.57721 -0.224615 2.50387 -13.0711 27.1291
-7.70297 84.792 34.0651 -5.3513 -10.7542 0.9659 0.152308 12.21 -5.15251 -0.925542 -2.43402 -1.61796 4.35579 15.1944 1.78129 3.87714 -14.685 3.77782 -0.0 0.0 0.0 -0.0 0.0 0.0 -8.86354e-14 -9.06481e-14 -5.97895e-13 23.7846 19.8302 27.0165 -11.9889 -57.6889 131.306 -4.13774 -48.5549 -9.15813 -2.73357e-10 -1.77738e-10 8.37154e-11 -4.71162e-10 -2.52813e-10 1.37981e-10 -2.73354e-10 -1.77739e-10 8.37058e-11 7.73091 5.47488 0.417314 -2.73358e-10 -1.7774e-10 8.37154e-11 2.90554 0.965183 0.102902 -2.7335e-10 -1.7774e-10 8.37162e-11 10.2786 0.731801 0.0259123 -2.73361e-10 -1.77738e-10 8.37186e-11 2.22167 -0.733487 -0.20892 -8.86864e-14 -9.06435e-14 -5.98143e-13 -90.5027 49.9404 21.2164 28.2026 -32.0001 -70.4539 0.57038 -20.9495 3.08437 8.75801e-10 5.52412e-09 2.44496e-09 1.47797e-09 9.52916e-09 4.23868e-09 8.75797e-10 5.52412e-09 2.44496e-09 -7.73091 5.47488 -0.417314 8.758e-10 5.52412e-09 2.44496e-09 -2.90554 0.965183 -0.102902 8.75796e-10 5.52412e-09 2.44496e-09 -10.2786 0.731801 -0.0259123 8.75805e-10 5.52412e-09 2.44495e-09 -2.22167 -0.733487 0.20892 -2.03217e-16 0.0 -3.88251e-19 -22.1771 -2.00491 0.000962383 0.005968 -2.08073 0.0581436 -0.321392 4.05262 0.11315 2.03217e-16 0.0 3.88251e-19 7.66571 2.25639 -2.81019 -0.0510491 5.53641 -0.220287 2.55085 -13.1028 27.2021
-7.7034 84.7856 34.0946 -5.3634 -10.6683 0.9821 0.202332 12.1078 -5.20098 -0.945312 -2.42355 -1.63082 4.33709 15.277 1.81481 3.79075 -14.6086 3.83335 -0.0 0.0 0.0 -0.0 0.0 0.0 -8.75594e-14 -7.43841e-14 -5.14099e-13 24.44 19.3793 26.8682 -12.1905 -57.6149 130.914 -4.13975 -48.5622 -9.16067 -3.90311e-10 -3.6323e-10 -1.82945e-10 -6.623e-10 -5.68328e-10 -3.28383e-10 -3.90308e-10 -3.63229e-10 -1.82956e-10 7.73091 5.47488 0.417314 -3.90312e-10 -3.6323e-10 -1.82945e-10 2.90554 0.965183 0.102902 -3.90305e-10 -3.6323e-10 -1.82944e-10 10.2786 0.731801 0.0259123 -3.90315e-10 -3.63227e-10 -1.82941e-10 2.22167 -0.733487 -0.20892 -8.76253e-14 -7.43816e-14 -5.14343e-13 -90.5386 50.0319 21.2706 28.2075 -32.0397 -70.5171 0.568841 -20.9228 3.08007 6.17964e-10 3.79365e-09 1.70152e-09 1.04445e-09 6.54423e-09 2.9493e-09 6.17961e-10 3.79366e-09 1.70152e-09 -7.73091 5.47488 -0.417314 6.17964e-10 3.79366e-09 1.70152e-09 -2.90554 0.965183 -0.102902 6.17959e-10 3.79365e-09 1.70151e-09 -10.2786 0.731801 -0.0259123 6.17968e-10 3.79366e-09 1.70151e-09 -2.22167 -0.733487 0.20892 -2.03217e-16 0.0 -3.88251e-19 -22.177 -2.00486 0.000962264 0.00597308 -2.08073 0.0581884 -0.321348 4.05259 0.113143 2.03217e-16 0.0 3.88251e-19 7.67523 2.2392 -2.84612 -0.0530084 5.53289 -0.218399 2.5642 -13.1203 27.2146
-7.69527 84.7779 34.1116 -5.3614 -10.5291 1.0142 0.300574 11.9806 -5.31419 -0.981377 -2.4344 -1.66119 4.34689 15.4241 1.91432 3.68739 -14.4414 4.01297 -0.0 0.0 0.0 -0.0 0.0 0.0 -7.10809e-14 -4.48253e-14 -3.2633e-13 25.556 18.5296 26.5941 -12.6853 -57.4253 129.948 -4.11481 -48.4589 -9.1273 -4.60007e-10 -5.21937e-10 -4.52499e-10 -7.72336e-10 -8.48402e-10 -7.9866e-10 -4.60005e-10 -5.21934e-10 -4.52512e-10 7.73091 5.47488 0.417314 -4.60009e-10 -5.21935e-10 -4.52499e-10 2.90554 0.965183 0.102902 -4.60003e-10 -5.21935e-10 -4.52497e-10 10.2786 0.731801 0.0259123 -4.60012e-10 -5.21932e-10 -4.52493e-10 2.22167 -0.733487 -0.20892 -7.11542e-14 -4.48269e-14 -3.26563e-13 -90.6106 50.128 21.3804 28.2156 -32.1062 -70.6238 0.566419 -20.8808 3.07329 2.07821e-10 1.16527e-09 5.71527e-10 3.53253e-10 2.00932e-09 9.89433e-10 2.07822e-10 1.16528e-09 5.71534e-10 -7.73091 5.47488 -0.417314 2.07823e-10 1.16527e-09 5.71528e-10 -2.90554 0.965183 -0.102902 2.07816e-10 1.16527e-09 5.71526e-10 -10.2786 0.731801 -0.0259123 2.07825e-10 1.16528e-09 5.71518e-10 -2.22167 -0.733487 0.20892 -2.03217e-16 0.0 -3.88251e-19 -22.1779 -2.00462 0.000981432 0.00595922 -2.08073 0.0580659 -0.321369 4.0524 0.113142 2.03217e-16 0.0 3.88251e-19 7.71035 2.18602 -2.9155 -0.0564286 5.55155 -0.218002 2.55514 -13.1254 27.1859
-7.69884 84.7708 34.1204 -5.391 -10.4372 1.0636 0.390436 11.8643 -5.44079 -1.01353 -2.45038 -1.69561 4.37388 15.5701 2.02249 3.59196 -14.2679 4.20914 -0.0 0.0 0.0 -0.0 0.0 0.0 -5.58221e-14 -1.59124e-14 -1.24049e-13 26.6471 17.7603 26.3411 -13.2106 -57.2097 128.914 -4.06988 -48.2728 -9.06722 -4.93497e-10 -6.35476e-10 -6.78465e-10 -8.21942e-10 -1.05411e-09 -1.1922e-09 -4.93496e-10 -6.35471e-10 -6.78481e-10 7.73091 5.47488 0.417314 -4.935e-10 -6.35471e-10 -6.78466e-10 2.90554 0.965183 0.102902 -4.93495e-10 -6.35471e-10 -6.78464e-10 10.2786 0.731801 0.0259123 -4.93502e-10 -6.35467e-10 -6.78458e-10 2.22167 -0.733487 -0.20892 -5.58986e-14 -1.59185e-14 -1.24266e-13 -90.6951 50.1831 21.5059 28.2238 -32.1749 -70.7351 0.564176 -20.8416 3.06698 -1.91119e-10 -1.47302e-09 -5.78564e-10 -3.1851e-10 -2.54191e-09 -1.00478e-09 -1.91115e-10 -1.473e-09 -5.78554e-10 -7.73091 5.47488 -0.417314 -1.91116e-10 -1.47302e-09 -5.78564e-10 -2.90554 0.965183 -0.102902 -1.91124e-10 -1.47302e-09 -5.78565e-10 -10.2786 0.731801 -0.0259123 -1.91116e-10 -1.47302e-09 -5.78573e-10 -2.22167 -0.733487 0.20892 -2.03217e-16 0.0 -3.88251e-19 -22.179 -2.0044 0.00100311 0.00595718 -2.08073 0.0580479 -0.321418 4.05221 0.113146 2.03217e-16 0.0 3.88251e-19 7.75046 2.13578 -2.97693 -0.0597567 5.57645 -0.218528 2.5359 -13.1221 27.1391
